<svg viewBox="0 0 300 300" xmlns="http://www.w3.org/2000/svg">
  <defs>
    <path id="topArc" d="M 45,150 A 105,105 0 0 1 255,150" fill="none"/>
    <path id="bottomArc" d="M 255,150 A 105,105 0 0 1 45,150" fill="none"/>
  </defs>

  <circle cx="150" cy="150" r="140" fill="none" stroke="#c8a96e" stroke-width="1.5" opacity="0.6"/>
  <circle cx="150" cy="150" r="130" fill="none" stroke="#c8a96e" stroke-width="0.5" opacity="0.3"/>

  <text font-family="Georgia, 'Times New Roman', serif" font-size="20" letter-spacing="6" fill="#c8a96e">
    <textPath href="#topArc" startOffset="50%" text-anchor="middle">CASA</textPath>
  </text>

  <text font-family="Georgia, 'Times New Roman', serif" font-size="16" letter-spacing="5" fill="#c8a96e">
    <textPath href="#bottomArc" startOffset="50%" text-anchor="middle">DEL SABOR</textPath>
  </text>

  <g stroke="#c8a96e" stroke-width="1.5" fill="#c8a96e" opacity="0.85">
    <path d="M 95,205 Q 80,180 85,150 Q 88,120 100,95" fill="none" stroke-width="1.2"/>
    <ellipse cx="87" cy="190" rx="8" ry="4" transform="rotate(-35 87 190)"/>
    <ellipse cx="83" cy="170" rx="8" ry="4" transform="rotate(-20 83 170)"/>
    <ellipse cx="84" cy="148" rx="8" ry="4" transform="rotate(-5 84 148)"/>
    <ellipse cx="90" cy="126" rx="8" ry="4" transform="rotate(15 90 126)"/>
    <ellipse cx="97" cy="106" rx="7" ry="3.5" transform="rotate(30 97 106)"/>
  </g>

  <g stroke="#c8a96e" stroke-width="1.5" fill="#c8a96e" opacity="0.85">
    <path d="M 205,205 Q 220,180 215,150 Q 212,120 200,95" fill="none" stroke-width="1.2"/>
    <ellipse cx="213" cy="190" rx="8" ry="4" transform="rotate(35 213 190)"/>
    <ellipse cx="217" cy="170" rx="8" ry="4" transform="rotate(20 217 170)"/>
    <ellipse cx="216" cy="148" rx="8" ry="4" transform="rotate(5 216 148)"/>
    <ellipse cx="210" cy="126" rx="8" ry="4" transform="rotate(-15 210 126)"/>
    <ellipse cx="203" cy="106" rx="7" ry="3.5" transform="rotate(-30 203 106)"/>
  </g>

  <text x="150" y="182" font-family="Georgia, 'Times New Roman', serif" font-size="92" font-weight="bold"
        fill="#c8a96e" text-anchor="middle">LCS</text>
</svg>
